<svg width="18" height="18" viewBox="0 0 18 18" fill="none" xmlns="http://www.w3.org/2000/svg">
<path d="M17.29 15.88L11.73 10.32C12.86 8.76999 13.36 6.73999 12.71 4.57999C12.03 2.34999 10.14 0.599994 7.86001 0.139994C3.21001 -0.800006 -0.799985 3.21999 0.140015 7.85999C0.600015 10.15 2.35002 12.04 4.58002 12.71C6.74002 13.36 8.77002 12.86 10.32 11.73L15.88 17.29C16.27 17.68 16.9 17.68 17.29 17.29C17.68 16.9 17.68 16.27 17.29 15.88ZM2.00002 6.49999C2.00002 4.00999 4.01002 1.99999 6.50002 1.99999C8.99002 1.99999 11 4.00999 11 6.49999C11 8.98999 8.99002 11 6.50002 11C4.01002 11 2.00002 8.98999 2.00002 6.49999Z" fill="#B2B2B2"/>
</svg>
