<svg width="20" height="22" viewBox="0 0 20 22" fill="none" xmlns="http://www.w3.org/2000/svg">
<path d="M9 12V2.59C9 2.1 8.37 1.9 8.09 2.3L1.55 11.71C1.32 12.04 1.56 12.5 1.96 12.5H8.5C8.78 12.5 9 12.28 9 12ZM18.99 11.98C18.72 6.07 13.9 1.32 11.4 0.229998C11.03 0.0699982 10.63 0.429998 10.73 0.819998C11.03 1.95 11.49 4.1 11.49 6.5C11.49 8.94 11 10.89 10.71 11.85C10.61 12.17 10.85 12.5 11.19 12.5H18.47C18.76 12.5 19 12.26 18.99 11.98ZM18.62 14H1.38C0.65 14 0.16 14.76 0.46 15.42C0.89 16.34 1.53 17.13 2.32 17.73C2.7 17.57 3.06 17.35 3.38 17.1C3.73 16.81 4.25 16.81 4.61 17.1C5.28 17.63 6.1 18 7 18C7.9 18 8.72 17.63 9.39 17.09C9.74 16.81 10.26 16.81 10.61 17.09C11.28 17.63 12.1 18 13 18C13.9 18 14.72 17.63 15.39 17.09C15.74 16.8 16.26 16.81 16.62 17.09C16.94 17.35 17.29 17.57 17.68 17.72C18.47 17.12 19.11 16.33 19.54 15.41C19.84 14.76 19.35 14 18.62 14ZM20 21C20 20.45 19.55 20 19 20C18.13 20 17.27 19.76 16.47 19.3C16.18 19.14 15.82 19.13 15.53 19.3C13.94 20.2 12.06 20.2 10.47 19.3C10.18 19.14 9.82 19.14 9.53 19.3C7.94 20.2 6.06 20.2 4.47 19.3C4.18 19.14 3.82 19.14 3.53 19.3C2.73 19.76 1.87 20 1 20C0.45 20 0 20.45 0 21C0 21.55 0.45 22 1 22C2.15 22 3.3 21.69 4.33 21.06C5.99 22.17 8.11 22.07 9.91 21.2C11.82 22.25 14.08 22.27 16 21.25C16.95 21.75 17.97 22 19 22C19.55 22 20 21.55 20 21Z" fill="#E4E4E4"/>
</svg>
